<svg height="40" viewBox="0 0 40 40" width="40" xmlns="http://www.w3.org/2000/svg"><g fill="none" fill-rule="evenodd"><path d="m8.187 0h23.626c4.503 0 8.187 3.684 8.187 8.187v23.626c0 4.503-3.684 8.187-8.187 8.187h-23.626c-4.503 0-8.187-3.684-8.187-8.187v-23.626c0-4.503 3.684-8.187 8.187-8.187z" fill="#3c5b99"/><path d="m29.603 23.97h-4.376v16.03h-6.63v-16.03h-3.153v-5.635h3.153v-3.645c0-2.608 1.239-6.69 6.689-6.69l4.91.02v5.47h-3.562c-.585 0-1.407.291-1.407 1.535v3.316h4.955l-.58 5.628z" fill="#fff" fill-rule="nonzero"/></g></svg>